<svg xmlns="http://www.w3.org/2000/svg" viewBox="0 0 640 160" font-family="Roboto, Arial, sans-serif">
<defs><linearGradient id="dv1" x1="0" y1="0" x2="0" y2="1"><stop offset="0%" stop-color="#6C82AB"/><stop offset="40%" stop-color="#37548C"/><stop offset="100%" stop-color="#1E2F50"/></linearGradient><linearGradient id="dv2" x1="0" y1="0" x2="0" y2="1"><stop offset="0%" stop-color="#B0C2E0"/><stop offset="40%" stop-color="#93ACD5"/><stop offset="100%" stop-color="#54637B"/></linearGradient><filter id="dth2" x="0%" y="0%" width="100%" height="100%"><feTurbulence type="fractalNoise" baseFrequency="0.9" numOctaves="2" stitchTiles="stitch" seed="11" result="noise"/><feColorMatrix in="noise" type="matrix" values="0.33 0.33 0.33 0 0  0.33 0.33 0.33 0 0  0.33 0.33 0.33 0 0  0 0 0 0 1" result="grey"/><feComponentTransfer in="grey" result="grain"><feFuncR type="linear" slope="0.7" intercept="0.15"/><feFuncG type="linear" slope="0.7" intercept="0.15"/><feFuncB type="linear" slope="0.7" intercept="0.15"/></feComponentTransfer><feBlend in="grain" in2="SourceGraphic" mode="soft-light" result="blended"/><feComposite in="blended" in2="SourceGraphic" operator="in"/></filter></defs>
<rect width="640" height="160" fill="#FFFFFF"/>
<line x1="210" y1="24" x2="210" y2="140" stroke="#74777F"/><rect x="210" y="34" width="150" height="24" fill="url(#dv1)" filter="url(#dth2)"/><rect x="170" y="34" width="40" height="24" fill="url(#dv2)" filter="url(#dth2)"/><rect x="210" y="32" width="116" height="28" fill="none" stroke="#BA1A1A" stroke-width="2.5"/><rect x="210" y="72" width="60" height="24" fill="url(#dv1)" filter="url(#dth2)"/><rect x="140" y="72" width="70" height="24" fill="url(#dv2)" filter="url(#dth2)"/><rect x="204" y="70" width="6" height="28" fill="none" stroke="#BA1A1A" stroke-width="2.5"/><rect x="210" y="110" width="30" height="24" fill="url(#dv1)" filter="url(#dth2)"/><rect x="120" y="110" width="90" height="24" fill="url(#dv2)" filter="url(#dth2)"/><rect x="154" y="108" width="56" height="28" fill="none" stroke="#BA1A1A" stroke-width="2.5"/><text x="420" y="56" font-size="10" fill="#74777F">diverging stacked · occupied right / vacant left</text><text x="420" y="72" font-size="10" fill="#74777F">film grain · square ends (segments abut)</text><text x="420" y="88" font-size="10" fill="#74777F">red hollow rect = net total marker</text>
</svg>
