<svg xmlns="http://www.w3.org/2000/svg" viewBox="0 0 640 195" font-family="Roboto, Arial, sans-serif">
<defs><linearGradient id="rb" x1="0" y1="0" x2="0" y2="1"><stop offset="0%" stop-color="#6C82AB"/><stop offset="40%" stop-color="#37548C"/><stop offset="100%" stop-color="#1E2F50"/></linearGradient><linearGradient id="rgr" x1="0" y1="0" x2="0" y2="1"><stop offset="0%" stop-color="#D5D6DD"/><stop offset="40%" stop-color="#C5C7D1"/><stop offset="100%" stop-color="#727379"/></linearGradient><filter id="dth" x="0%" y="0%" width="100%" height="100%"><feTurbulence type="fractalNoise" baseFrequency="0.9" numOctaves="2" stitchTiles="stitch" seed="11" result="noise"/><feColorMatrix in="noise" type="matrix" values="0.33 0.33 0.33 0 0  0.33 0.33 0.33 0 0  0.33 0.33 0.33 0 0  0 0 0 0 1" result="grey"/><feComponentTransfer in="grey" result="grain"><feFuncR type="linear" slope="0.7" intercept="0.15"/><feFuncG type="linear" slope="0.7" intercept="0.15"/><feFuncB type="linear" slope="0.7" intercept="0.15"/></feComponentTransfer><feBlend in="grain" in2="SourceGraphic" mode="soft-light" result="blended"/><feComposite in="blended" in2="SourceGraphic" operator="in"/></filter></defs>
<rect width="640" height="195" fill="#FFFFFF"/>
<rect x="46" y="52" width="44" height="118" rx="4" ry="4" fill="url(#rb)" filter="url(#dth)"/><text x="68" y="44" font-size="12" font-weight="500" fill="#44474E" text-anchor="middle">53.9%</text><rect x="116" y="88" width="44" height="82" rx="4" ry="4" fill="url(#rb)" filter="url(#dth)"/><text x="138" y="80" font-size="12" font-weight="500" fill="#44474E" text-anchor="middle">31.6%</text><rect x="186" y="118" width="44" height="52" rx="4" ry="4" fill="url(#rgr)" filter="url(#dth)"/><text x="208" y="110" font-size="12" font-weight="500" fill="#44474E" text-anchor="middle">12.3%</text><rect x="256" y="122" width="44" height="48" rx="4" ry="4" fill="url(#rb)" filter="url(#dth)"/><text x="278" y="114" font-size="12" font-weight="500" fill="#44474E" text-anchor="middle">10.6%</text><rect x="326" y="138" width="44" height="32" rx="4" ry="4" fill="url(#rb)" filter="url(#dth)"/><text x="348" y="130" font-size="12" font-weight="500" fill="#44474E" text-anchor="middle">7.3%</text><rect x="252" y="118" width="52" height="56" rx="6" fill="none" stroke="#BA1A1A" stroke-width="3"/><line x1="30" y1="170" x2="400" y2="170" stroke="#74777F"/><text x="420" y="60" font-size="10" fill="#74777F">ranked bars · deep gradient + film grain</text><text x="420" y="76" font-size="10" fill="#74777F">rounded 4px · gray benchmark · red focus (3px)</text>
</svg>
