<svg xmlns="http://www.w3.org/2000/svg" viewBox="0 0 640 165" font-family="Roboto, Arial, sans-serif">
<defs></defs>
<rect width="640" height="165" fill="#FFFFFF"/>
<line x1="30" y1="90" x2="400" y2="90" stroke="#A7A9AC"/><circle cx="40" cy="90" r="6.5" fill="#BA1A1A" opacity="1"/><circle cx="84" cy="76" r="6.5" fill="#BA1A1A" opacity="1"/><circle cx="128" cy="114" r="6.5" fill="#BA1A1A" opacity="1"/><circle cx="172" cy="133" r="6.5" fill="#BA1A1A" opacity="1"/><circle cx="216" cy="132" r="6.5" fill="#BA1A1A" opacity="1"/><circle cx="260" cy="118" r="6.5" fill="#BA1A1A" opacity="1"/><circle cx="304" cy="97" r="6.5" fill="#BA1A1A" opacity="1"/><circle cx="348" cy="69" r="6.5" fill="#BA1A1A" opacity="1"/><circle cx="392" cy="52" r="6.5" fill="#BA1A1A" opacity="1"/><circle cx="40" cy="90" r="4" fill="#8F9193" opacity="0.85"/><circle cx="84" cy="84" r="4" fill="#8F9193" opacity="0.85"/><circle cx="128" cy="103" r="4" fill="#8F9193" opacity="0.85"/><circle cx="172" cy="117" r="4" fill="#8F9193" opacity="0.85"/><circle cx="216" cy="111" r="4" fill="#8F9193" opacity="0.85"/><circle cx="260" cy="98" r="4" fill="#8F9193" opacity="0.85"/><circle cx="304" cy="84" r="4" fill="#8F9193" opacity="0.85"/><circle cx="348" cy="75" r="4" fill="#8F9193" opacity="0.85"/><circle cx="392" cy="66" r="4" fill="#8F9193" opacity="0.85"/><circle cx="40" cy="90" r="4" fill="#1F2F47" opacity="0.85"/><circle cx="84" cy="82" r="4" fill="#1F2F47" opacity="0.85"/><circle cx="128" cy="110" r="4" fill="#1F2F47" opacity="0.85"/><circle cx="172" cy="128" r="4" fill="#1F2F47" opacity="0.85"/><circle cx="216" cy="124" r="4" fill="#1F2F47" opacity="0.85"/><circle cx="260" cy="111" r="4" fill="#1F2F47" opacity="0.85"/><circle cx="304" cy="94" r="4" fill="#1F2F47" opacity="0.85"/><circle cx="348" cy="80" r="4" fill="#1F2F47" opacity="0.85"/><circle cx="392" cy="75" r="4" fill="#1F2F47" opacity="0.85"/><text x="420" y="60" font-size="10" fill="#74777F">index dots · data points only, no lines</text><text x="420" y="76" font-size="10" fill="#74777F">focus series red, r 5.5 · others r 4 @ 85%</text>
</svg>
