<svg xmlns="http://www.w3.org/2000/svg" viewBox="0 0 720 220" font-family="Roboto, Arial, sans-serif">
<defs></defs>
<rect width="720" height="220" fill="#FFFFFF"/>
<g><rect x="12.0" y="12" width="165.0" height="64" rx="8" fill="#33518A" stroke="#C4C6D0" stroke-width="0"/><text x="22.0" y="66" font-size="11" font-weight="500" fill="#FFFFFF">#33518A</text><text x="12.0" y="91" font-size="10.5" fill="#44474E">navy (primary bars)</text></g>
<g><rect x="189.0" y="12" width="165.0" height="64" rx="8" fill="#5578AE" stroke="#C4C6D0" stroke-width="0"/><text x="199.0" y="66" font-size="11" font-weight="500" fill="#FFFFFF">#5578AE</text><text x="189.0" y="91" font-size="10.5" fill="#44474E">navy-mid</text></g>
<g><rect x="366.0" y="12" width="165.0" height="64" rx="8" fill="#91AAD4" stroke="#C4C6D0" stroke-width="1"/><text x="376.0" y="66" font-size="11" font-weight="500" fill="#191C20">#91AAD4</text><text x="366.0" y="91" font-size="10.5" fill="#44474E">navy-light</text></g>
<g><rect x="543.0" y="12" width="165.0" height="64" rx="8" fill="#C4C6D0" stroke="#C4C6D0" stroke-width="1"/><text x="553.0" y="66" font-size="11" font-weight="500" fill="#191C20">#C4C6D0</text><text x="543.0" y="91" font-size="10.5" fill="#44474E">gray-bar (benchmark)</text></g>
<g><rect x="12.0" y="110" width="165.0" height="64" rx="8" fill="#BA1A1A" stroke="#C4C6D0" stroke-width="0"/><text x="22.0" y="164" font-size="11" font-weight="500" fill="#FFFFFF">#BA1A1A</text><text x="12.0" y="189" font-size="10.5" fill="#44474E">red (focus / error)</text></g>
<g><rect x="189.0" y="110" width="165.0" height="64" rx="8" fill="#146C2E" stroke="#C4C6D0" stroke-width="0"/><text x="199.0" y="164" font-size="11" font-weight="500" fill="#FFFFFF">#146C2E</text><text x="189.0" y="189" font-size="10.5" fill="#44474E">pos (increase)</text></g>
<g><rect x="366.0" y="110" width="165.0" height="64" rx="8" fill="#A63B00" stroke="#C4C6D0" stroke-width="0"/><text x="376.0" y="164" font-size="11" font-weight="500" fill="#FFFFFF">#A63B00</text><text x="366.0" y="189" font-size="10.5" fill="#44474E">neg (decrease)</text></g>
</svg>
