<svg xmlns="http://www.w3.org/2000/svg" viewBox="0 0 720 205" font-family="Roboto, Arial, sans-serif">
<defs><linearGradient id="g0" x1="0" y1="0" x2="0" y2="1"><stop offset="0%" stop-color="#6C82AB"/><stop offset="40%" stop-color="#37548C"/><stop offset="100%" stop-color="#1E2F50"/></linearGradient><linearGradient id="g1" x1="0" y1="0" x2="0" y2="1"><stop offset="0%" stop-color="#859EC5"/><stop offset="40%" stop-color="#587BB0"/><stop offset="100%" stop-color="#314665"/></linearGradient><linearGradient id="g2" x1="0" y1="0" x2="0" y2="1"><stop offset="0%" stop-color="#B0C2E0"/><stop offset="40%" stop-color="#93ACD5"/><stop offset="100%" stop-color="#54637B"/></linearGradient><linearGradient id="g3" x1="0" y1="0" x2="0" y2="1"><stop offset="0%" stop-color="#D5D6DD"/><stop offset="40%" stop-color="#C5C7D1"/><stop offset="100%" stop-color="#727379"/></linearGradient><linearGradient id="g4" x1="0" y1="0" x2="0" y2="1"><stop offset="0%" stop-color="#CD5A5A"/><stop offset="40%" stop-color="#BB1F1F"/><stop offset="100%" stop-color="#6C0F0F"/></linearGradient></defs>
<rect width="720" height="205" fill="#FFFFFF"/>
<text x="16" y="16" font-size="12" font-weight="500" fill="#191C20">Bar fill gradients — 3-stop: +0.28 top · +0.02 mid (40%) · −0.42 bottom (depth)</text><rect x="16" y="26" width="110" height="120" rx="4" fill="url(#g0)"/><text x="16" y="170" font-size="11" fill="#44474E">navy</text><text x="16" y="185" font-size="9.5" fill="#74777F">#546D9D → #2C4677</text><rect x="156" y="26" width="110" height="120" rx="4" fill="url(#g1)"/><text x="156" y="170" font-size="11" fill="#44474E">navy-mid</text><text x="156" y="185" font-size="9.5" fill="#74777F">#708EBB → #496796</text><rect x="296" y="26" width="110" height="120" rx="4" fill="url(#g2)"/><text x="296" y="170" font-size="11" fill="#44474E">navy-light</text><text x="296" y="185" font-size="9.5" fill="#74777F">#A3B8DB → #7D92B6</text><rect x="436" y="26" width="110" height="120" rx="4" fill="url(#g3)"/><text x="436" y="170" font-size="11" fill="#44474E">gray-bar</text><text x="436" y="185" font-size="9.5" fill="#74777F">#CDCFD8 → #A9AAB3</text><rect x="576" y="26" width="110" height="120" rx="4" fill="url(#g4)"/><text x="576" y="170" font-size="11" fill="#44474E">red focus</text><text x="576" y="185" font-size="9.5" fill="#74777F">#C53F3F → #A01616</text>
</svg>
