<svg xmlns="http://www.w3.org/2000/svg" viewBox="0 0 720 612" font-family="Roboto, Arial, sans-serif">
<defs></defs>
<rect width="720" height="612" fill="#FFFFFF"/>
<g><rect x="12.0" y="12" width="165.0" height="64" rx="8" fill="#415F91" stroke="#C4C6D0" stroke-width="0"/><text x="22.0" y="66" font-size="11" font-weight="500" fill="#FFFFFF">#415F91</text><text x="12.0" y="91" font-size="10.5" fill="#44474E">--md-sys-color-primary</text></g>
<g><rect x="189.0" y="12" width="165.0" height="64" rx="8" fill="#FFFFFF" stroke="#C4C6D0" stroke-width="1"/><text x="199.0" y="66" font-size="11" font-weight="500" fill="#191C20">#FFFFFF</text><text x="189.0" y="91" font-size="10.5" fill="#44474E">--md-sys-color-on-primary</text></g>
<g><rect x="366.0" y="12" width="165.0" height="64" rx="8" fill="#D6E3FF" stroke="#C4C6D0" stroke-width="1"/><text x="376.0" y="66" font-size="11" font-weight="500" fill="#191C20">#D6E3FF</text><text x="366.0" y="91" font-size="10.5" fill="#44474E">--md-sys-color-primary-container</text></g>
<g><rect x="543.0" y="12" width="165.0" height="64" rx="8" fill="#001B3E" stroke="#C4C6D0" stroke-width="0"/><text x="553.0" y="66" font-size="11" font-weight="500" fill="#FFFFFF">#001B3E</text><text x="543.0" y="91" font-size="10.5" fill="#44474E">--md-sys-color-on-primary-container</text></g>
<g><rect x="12.0" y="110" width="165.0" height="64" rx="8" fill="#565F71" stroke="#C4C6D0" stroke-width="0"/><text x="22.0" y="164" font-size="11" font-weight="500" fill="#FFFFFF">#565F71</text><text x="12.0" y="189" font-size="10.5" fill="#44474E">--md-sys-color-secondary</text></g>
<g><rect x="189.0" y="110" width="165.0" height="64" rx="8" fill="#DAE2F9" stroke="#C4C6D0" stroke-width="1"/><text x="199.0" y="164" font-size="11" font-weight="500" fill="#191C20">#DAE2F9</text><text x="189.0" y="189" font-size="10.5" fill="#44474E">--md-sys-color-secondary-container</text></g>
<g><rect x="366.0" y="110" width="165.0" height="64" rx="8" fill="#131C2B" stroke="#C4C6D0" stroke-width="0"/><text x="376.0" y="164" font-size="11" font-weight="500" fill="#FFFFFF">#131C2B</text><text x="366.0" y="189" font-size="10.5" fill="#44474E">--md-sys-color-on-secondary-container</text></g>
<g><rect x="543.0" y="110" width="165.0" height="64" rx="8" fill="#BA1A1A" stroke="#C4C6D0" stroke-width="0"/><text x="553.0" y="164" font-size="11" font-weight="500" fill="#FFFFFF">#BA1A1A</text><text x="543.0" y="189" font-size="10.5" fill="#44474E">--md-sys-color-error</text></g>
<g><rect x="12.0" y="208" width="165.0" height="64" rx="8" fill="#F9F9FF" stroke="#C4C6D0" stroke-width="1"/><text x="22.0" y="262" font-size="11" font-weight="500" fill="#191C20">#F9F9FF</text><text x="12.0" y="287" font-size="10.5" fill="#44474E">--md-sys-color-surface</text></g>
<g><rect x="189.0" y="208" width="165.0" height="64" rx="8" fill="#D9D9E0" stroke="#C4C6D0" stroke-width="1"/><text x="199.0" y="262" font-size="11" font-weight="500" fill="#191C20">#D9D9E0</text><text x="189.0" y="287" font-size="10.5" fill="#44474E">--md-sys-color-surface-dim</text></g>
<g><rect x="366.0" y="208" width="165.0" height="64" rx="8" fill="#FFFFFF" stroke="#C4C6D0" stroke-width="1"/><text x="376.0" y="262" font-size="11" font-weight="500" fill="#191C20">#FFFFFF</text><text x="366.0" y="287" font-size="10.5" fill="#44474E">--md-sys-color-surface-container-lowest</text></g>
<g><rect x="543.0" y="208" width="165.0" height="64" rx="8" fill="#F3F3FA" stroke="#C4C6D0" stroke-width="1"/><text x="553.0" y="262" font-size="11" font-weight="500" fill="#191C20">#F3F3FA</text><text x="543.0" y="287" font-size="10.5" fill="#44474E">--md-sys-color-surface-container-low</text></g>
<g><rect x="12.0" y="306" width="165.0" height="64" rx="8" fill="#EDEDF4" stroke="#C4C6D0" stroke-width="1"/><text x="22.0" y="360" font-size="11" font-weight="500" fill="#191C20">#EDEDF4</text><text x="12.0" y="385" font-size="10.5" fill="#44474E">--md-sys-color-surface-container</text></g>
<g><rect x="189.0" y="306" width="165.0" height="64" rx="8" fill="#E7E8EE" stroke="#C4C6D0" stroke-width="1"/><text x="199.0" y="360" font-size="11" font-weight="500" fill="#191C20">#E7E8EE</text><text x="189.0" y="385" font-size="10.5" fill="#44474E">--md-sys-color-surface-container-high</text></g>
<g><rect x="366.0" y="306" width="165.0" height="64" rx="8" fill="#E2E2E9" stroke="#C4C6D0" stroke-width="1"/><text x="376.0" y="360" font-size="11" font-weight="500" fill="#191C20">#E2E2E9</text><text x="366.0" y="385" font-size="10.5" fill="#44474E">--md-sys-color-surface-container-highest</text></g>
<g><rect x="543.0" y="306" width="165.0" height="64" rx="8" fill="#191C20" stroke="#C4C6D0" stroke-width="0"/><text x="553.0" y="360" font-size="11" font-weight="500" fill="#FFFFFF">#191C20</text><text x="543.0" y="385" font-size="10.5" fill="#44474E">--md-sys-color-on-surface</text></g>
<g><rect x="12.0" y="404" width="165.0" height="64" rx="8" fill="#44474E" stroke="#C4C6D0" stroke-width="0"/><text x="22.0" y="458" font-size="11" font-weight="500" fill="#FFFFFF">#44474E</text><text x="12.0" y="483" font-size="10.5" fill="#44474E">--md-sys-color-on-surface-variant</text></g>
<g><rect x="189.0" y="404" width="165.0" height="64" rx="8" fill="#74777F" stroke="#C4C6D0" stroke-width="0"/><text x="199.0" y="458" font-size="11" font-weight="500" fill="#FFFFFF">#74777F</text><text x="189.0" y="483" font-size="10.5" fill="#44474E">--md-sys-color-outline</text></g>
<g><rect x="366.0" y="404" width="165.0" height="64" rx="8" fill="#C4C6D0" stroke="#C4C6D0" stroke-width="1"/><text x="376.0" y="458" font-size="11" font-weight="500" fill="#191C20">#C4C6D0</text><text x="366.0" y="483" font-size="10.5" fill="#44474E">--md-sys-color-outline-variant</text></g>
<g><rect x="543.0" y="404" width="165.0" height="64" rx="8" fill="#2E3036" stroke="#C4C6D0" stroke-width="0"/><text x="553.0" y="458" font-size="11" font-weight="500" fill="#FFFFFF">#2E3036</text><text x="543.0" y="483" font-size="10.5" fill="#44474E">--md-sys-color-inverse-surface</text></g>
<g><rect x="12.0" y="502" width="165.0" height="64" rx="8" fill="#F0F0F7" stroke="#C4C6D0" stroke-width="1"/><text x="22.0" y="556" font-size="11" font-weight="500" fill="#191C20">#F0F0F7</text><text x="12.0" y="581" font-size="10.5" fill="#44474E">--md-sys-color-inverse-on-surface</text></g>
</svg>
