<svg xmlns="http://www.w3.org/2000/svg" viewBox="0 0 720 416" font-family="Roboto, Arial, sans-serif">
<defs></defs>
<rect width="720" height="416" fill="#FFFFFF"/>
<g><rect x="12.0" y="12" width="165.0" height="64" rx="8" fill="#33518A" stroke="#C4C6D0" stroke-width="0"/><text x="22.0" y="66" font-size="11" font-weight="500" fill="#FFFFFF">#33518A</text><text x="12.0" y="91" font-size="10.5" fill="#44474E">navy (primary bars)</text></g>
<g><rect x="189.0" y="12" width="165.0" height="64" rx="8" fill="#5578AE" stroke="#C4C6D0" stroke-width="0"/><text x="199.0" y="66" font-size="11" font-weight="500" fill="#FFFFFF">#5578AE</text><text x="189.0" y="91" font-size="10.5" fill="#44474E">navy-mid</text></g>
<g><rect x="366.0" y="12" width="165.0" height="64" rx="8" fill="#91AAD4" stroke="#C4C6D0" stroke-width="1"/><text x="376.0" y="66" font-size="11" font-weight="500" fill="#191C20">#91AAD4</text><text x="366.0" y="91" font-size="10.5" fill="#44474E">navy-light</text></g>
<g><rect x="543.0" y="12" width="165.0" height="64" rx="8" fill="#C4C6D0" stroke="#C4C6D0" stroke-width="1"/><text x="553.0" y="66" font-size="11" font-weight="500" fill="#191C20">#C4C6D0</text><text x="543.0" y="91" font-size="10.5" fill="#44474E">gray-bar (benchmark)</text></g>
<g><rect x="12.0" y="110" width="165.0" height="64" rx="8" fill="#BA1A1A" stroke="#C4C6D0" stroke-width="0"/><text x="22.0" y="164" font-size="11" font-weight="500" fill="#FFFFFF">#BA1A1A</text><text x="12.0" y="189" font-size="10.5" fill="#44474E">red (focus / error)</text></g>
<g><rect x="189.0" y="110" width="165.0" height="64" rx="8" fill="#146C2E" stroke="#C4C6D0" stroke-width="0"/><text x="199.0" y="164" font-size="11" font-weight="500" fill="#FFFFFF">#146C2E</text><text x="189.0" y="189" font-size="10.5" fill="#44474E">pos (increase)</text></g>
<g><rect x="366.0" y="110" width="165.0" height="64" rx="8" fill="#A63B00" stroke="#C4C6D0" stroke-width="0"/><text x="376.0" y="164" font-size="11" font-weight="500" fill="#FFFFFF">#A63B00</text><text x="366.0" y="189" font-size="10.5" fill="#44474E">neg (decrease)</text></g>
<g><rect x="543.0" y="110" width="165.0" height="64" rx="8" fill="#1F2F47" stroke="#C4C6D0" stroke-width="0"/><text x="553.0" y="164" font-size="11" font-weight="500" fill="#FFFFFF">#1F2F47</text><text x="543.0" y="189" font-size="10.5" fill="#44474E">Austin</text></g>
<g><rect x="12.0" y="208" width="165.0" height="64" rx="8" fill="#547BB6" stroke="#C4C6D0" stroke-width="0"/><text x="22.0" y="262" font-size="11" font-weight="500" fill="#FFFFFF">#547BB6</text><text x="12.0" y="287" font-size="10.5" fill="#44474E">East Garfield Park</text></g>
<g><rect x="189.0" y="208" width="165.0" height="64" rx="8" fill="#304970" stroke="#C4C6D0" stroke-width="0"/><text x="199.0" y="262" font-size="11" font-weight="500" fill="#FFFFFF">#304970</text><text x="189.0" y="287" font-size="10.5" fill="#44474E">West Garfield Park</text></g>
<g><rect x="366.0" y="208" width="165.0" height="64" rx="8" fill="#8F9193" stroke="#C4C6D0" stroke-width="0"/><text x="376.0" y="262" font-size="11" font-weight="500" fill="#FFFFFF">#8F9193</text><text x="366.0" y="287" font-size="10.5" fill="#44474E">City of Chicago</text></g>
<g><rect x="543.0" y="208" width="165.0" height="64" rx="8" fill="#999B9E" stroke="#C4C6D0" stroke-width="1"/><text x="553.0" y="262" font-size="11" font-weight="500" fill="#191C20">#999B9E</text><text x="543.0" y="287" font-size="10.5" fill="#44474E">diverging gray</text></g>
<g><rect x="12.0" y="306" width="165.0" height="64" rx="8" fill="#C5C6C8" stroke="#C4C6D0" stroke-width="1"/><text x="22.0" y="360" font-size="11" font-weight="500" fill="#191C20">#C5C6C8</text><text x="12.0" y="385" font-size="10.5" fill="#44474E">stack gray 1</text></g>
<g><rect x="189.0" y="306" width="165.0" height="64" rx="8" fill="#E2E3E4" stroke="#C4C6D0" stroke-width="1"/><text x="199.0" y="360" font-size="11" font-weight="500" fill="#191C20">#E2E3E4</text><text x="189.0" y="385" font-size="10.5" fill="#44474E">stack gray 2</text></g>
</svg>
